%TF.GenerationSoftware,KiCad,Pcbnew,7.0.7*%
%TF.CreationDate,2023-10-23T11:24:34+01:00*%
%TF.ProjectId,BLEEarrings,424c4545-6172-4726-996e-67732e6b6963,rev?*%
%TF.SameCoordinates,Original*%
%TF.FileFunction,Copper,L1,Top*%
%TF.FilePolarity,Positive*%
%FSLAX46Y46*%
G04 Gerber Fmt 4.6, Leading zero omitted, Abs format (unit mm)*
G04 Created by KiCad (PCBNEW 7.0.7) date 2023-10-23 11:24:34*
%MOMM*%
%LPD*%
G01*
G04 APERTURE LIST*
G04 APERTURE END LIST*
%TO.C,REF\u002A\u002A*%
G36*
X147440000Y-57190000D02*
G01*
X152440000Y-57190000D01*
X152440000Y-57690000D01*
X147440000Y-57690000D01*
X147440000Y-57190000D01*
G37*
G36*
X147440000Y-57690000D02*
G01*
X148340000Y-57690000D01*
X148340000Y-62590000D01*
X147440000Y-62590000D01*
X147440000Y-57690000D01*
G37*
G36*
X149740000Y-57690000D02*
G01*
X150240000Y-57690000D01*
X150240000Y-62590000D01*
X149740000Y-62590000D01*
X149740000Y-57690000D01*
G37*
G36*
X151940000Y-57690000D02*
G01*
X152440000Y-57690000D01*
X152440000Y-60330000D01*
X151940000Y-60330000D01*
X151940000Y-57690000D01*
G37*
G36*
X152440000Y-59830000D02*
G01*
X154440000Y-59830000D01*
X154440000Y-60330000D01*
X152440000Y-60330000D01*
X152440000Y-59830000D01*
G37*
G36*
X154440000Y-57690000D02*
G01*
X154940000Y-57690000D01*
X154940000Y-60330000D01*
X154440000Y-60330000D01*
X154440000Y-57690000D01*
G37*
G36*
X154440000Y-57690000D02*
G01*
X157140000Y-57690000D01*
X157140000Y-57190000D01*
X154440000Y-57190000D01*
X154440000Y-57690000D01*
G37*
G36*
X156640000Y-57690000D02*
G01*
X157140000Y-57690000D01*
X157140000Y-60330000D01*
X156640000Y-60330000D01*
X156640000Y-57690000D01*
G37*
G36*
X157140000Y-59830000D02*
G01*
X159140000Y-59830000D01*
X159140000Y-60330000D01*
X157140000Y-60330000D01*
X157140000Y-59830000D01*
G37*
G36*
X159140000Y-57690000D02*
G01*
X159640000Y-57690000D01*
X159640000Y-60330000D01*
X159140000Y-60330000D01*
X159140000Y-57690000D01*
G37*
G36*
X159140000Y-57690000D02*
G01*
X161840000Y-57690000D01*
X161840000Y-57190000D01*
X159140000Y-57190000D01*
X159140000Y-57690000D01*
G37*
G36*
X161340000Y-57690000D02*
G01*
X161840000Y-57690000D01*
X161840000Y-61630000D01*
X161340000Y-61630000D01*
X161340000Y-57690000D01*
G37*
%TD*%
M02*
